<svg height="512" viewBox="0 0 64 64" width="512" xmlns="http://www.w3.org/2000/svg"><g id="Two_Tone" data-name="Two Tone"><path d="m53 24.267c0 18.366-21 36.733-21 36.733s-21-18.367-21-36.733a21 21 0 1 1 42 0z" fill="#90caf9"/><circle cx="32" cy="24" fill="#ffc108" r="17"/><path d="m34 32v-14h-7v4h3v10h-3v4h10v-4z" fill="#1a76d2"/><path d="m30 12h4v4h-4z" fill="#1a76d2"/><g fill="#0d47a0"><path d="m37 31h-2v-12a1 1 0 0 0 -1-1h-7a1 1 0 0 0 -1 1v4a1 1 0 0 0 1 1h2v7h-2a1 1 0 0 0 -1 1v4a1 1 0 0 0 1 1h10a1 1 0 0 0 1-1v-4a1 1 0 0 0 -1-1zm-1 4h-8v-2h2a1 1 0 0 0 1-1v-9a1 1 0 0 0 -1-1h-2v-2h5v12a1 1 0 0 0 1 1h2z"/><path d="m30 16h4a1 1 0 0 0 1-1v-4a1 1 0 0 0 -1-1h-4a1 1 0 0 0 -1 1v4a1 1 0 0 0 1 1zm1-4h2v2h-2z"/><path d="m32 2a22.16 22.16 0 0 0 -22 22.267c0 7.841 3.6 16.542 10.7 25.86a86.5 86.5 0 0 0 10.642 11.626 1 1 0 0 0 1.316 0 86.5 86.5 0 0 0 10.642-11.626c7.1-9.318 10.7-18.019 10.7-25.86a22.16 22.16 0 0 0 -22-22.267zm0 57.646c-3.527-3.288-20-19.5-20-35.379a20 20 0 1 1 40 0c0 15.88-16.473 32.091-20 35.379z"/><path d="m32 6a18 18 0 1 0 18 18 18.021 18.021 0 0 0 -18-18zm0 34a16 16 0 1 1 16-16 16.019 16.019 0 0 1 -16 16z"/></g></g></svg>